<svg width="1280" height="720" xmlns="http://www.w3.org/2000/svg" xmlns:xlink="http://www.w3.org/1999/xlink" overflow="hidden"><defs><clipPath id="clip0"><path d="M0 0 1280 0 1280 720 0 720Z" fill-rule="evenodd" clip-rule="evenodd"/></clipPath><clipPath id="clip1"><path d="M19 200 121 200 121 251 19 251Z" fill-rule="evenodd" clip-rule="evenodd"/></clipPath><clipPath id="clip2"><path d="M19 200 121 200 121 251 19 251Z" fill-rule="evenodd" clip-rule="evenodd"/></clipPath><clipPath id="clip3"><path d="M19 200 121 200 121 251 19 251Z" fill-rule="evenodd" clip-rule="evenodd"/></clipPath><clipPath id="clip4"><path d="M295 485 355 485 355 527 295 527Z" fill-rule="evenodd" clip-rule="evenodd"/></clipPath><clipPath id="clip5"><path d="M295 485 355 485 355 527 295 527Z" fill-rule="evenodd" clip-rule="evenodd"/></clipPath><clipPath id="clip6"><path d="M295 485 355 485 355 527 295 527Z" fill-rule="evenodd" clip-rule="evenodd"/></clipPath><clipPath id="clip7"><path d="M699 478 761 478 761 525 699 525Z" fill-rule="evenodd" clip-rule="evenodd"/></clipPath><clipPath id="clip8"><path d="M699 478 761 478 761 525 699 525Z" fill-rule="evenodd" clip-rule="evenodd"/></clipPath><clipPath id="clip9"><path d="M699 478 761 478 761 525 699 525Z" fill-rule="evenodd" clip-rule="evenodd"/></clipPath><clipPath id="clip10"><path d="M758 481 920 481 920 520 758 520Z" fill-rule="evenodd" clip-rule="evenodd"/></clipPath><clipPath id="clip11"><path d="M758 481 920 481 920 520 758 520Z" fill-rule="evenodd" clip-rule="evenodd"/></clipPath><clipPath id="clip12"><path d="M758 481 920 481 920 520 758 520Z" fill-rule="evenodd" clip-rule="evenodd"/></clipPath><clipPath id="clip13"><path d="M358 482 401 482 401 520 358 520Z" fill-rule="evenodd" clip-rule="evenodd"/></clipPath><clipPath id="clip14"><path d="M358 482 401 482 401 520 358 520Z" fill-rule="evenodd" clip-rule="evenodd"/></clipPath><clipPath id="clip15"><path d="M358 482 401 482 401 520 358 520Z" fill-rule="evenodd" clip-rule="evenodd"/></clipPath><clipPath id="clip16"><path d="M118 606 165 606 165 641 118 641Z" fill-rule="evenodd" clip-rule="evenodd"/></clipPath><clipPath id="clip17"><path d="M118 606 165 606 165 641 118 641Z" fill-rule="evenodd" clip-rule="evenodd"/></clipPath><clipPath id="clip18"><path d="M118 606 165 606 165 641 118 641Z" fill-rule="evenodd" clip-rule="evenodd"/></clipPath><clipPath id="clip19"><path d="M542 606 590 606 590 642 542 642Z" fill-rule="evenodd" clip-rule="evenodd"/></clipPath><clipPath id="clip20"><path d="M542 606 590 606 590 642 542 642Z" fill-rule="evenodd" clip-rule="evenodd"/></clipPath><clipPath id="clip21"><path d="M542 606 590 606 590 642 542 642Z" fill-rule="evenodd" clip-rule="evenodd"/></clipPath><clipPath id="clip22"><path d="M1033 606 1107 606 1107 640 1033 640Z" fill-rule="evenodd" clip-rule="evenodd"/></clipPath><clipPath id="clip23"><path d="M1033 606 1107 606 1107 640 1033 640Z" fill-rule="evenodd" clip-rule="evenodd"/></clipPath><clipPath id="clip24"><path d="M1033 606 1107 606 1107 640 1033 640Z" fill-rule="evenodd" clip-rule="evenodd"/></clipPath><clipPath id="clip25"><path d="M1214 482 1316 482 1316 525 1214 525Z" fill-rule="evenodd" clip-rule="evenodd"/></clipPath><clipPath id="clip26"><path d="M1214 482 1316 482 1316 525 1214 525Z" fill-rule="evenodd" clip-rule="evenodd"/></clipPath><clipPath id="clip27"><path d="M1214 482 1316 482 1316 525 1214 525Z" fill-rule="evenodd" clip-rule="evenodd"/></clipPath><clipPath id="clip28"><path d="M146 193 224 193 224 261 146 261Z" fill-rule="evenodd" clip-rule="evenodd"/></clipPath><clipPath id="clip29"><path d="M146 193 224 193 224 261 146 261Z" fill-rule="evenodd" clip-rule="evenodd"/></clipPath><clipPath id="clip30"><path d="M146 193 224 193 224 261 146 261Z" fill-rule="evenodd" clip-rule="evenodd"/></clipPath><clipPath id="clip31"><path d="M638 193 716 193 716 261 638 261Z" fill-rule="evenodd" clip-rule="evenodd"/></clipPath><clipPath id="clip32"><path d="M638 193 716 193 716 261 638 261Z" fill-rule="evenodd" clip-rule="evenodd"/></clipPath><clipPath id="clip33"><path d="M638 193 716 193 716 261 638 261Z" fill-rule="evenodd" clip-rule="evenodd"/></clipPath><clipPath id="clip34"><path d="M229 163 275 163 275 185 229 185Z" fill-rule="evenodd" clip-rule="evenodd"/></clipPath><clipPath id="clip35"><path d="M229 163 275 163 275 185 229 185Z" fill-rule="evenodd" clip-rule="evenodd"/></clipPath><clipPath id="clip36"><path d="M229 163 275 163 275 185 229 185Z" fill-rule="evenodd" clip-rule="evenodd"/></clipPath><clipPath id="clip37"><path d="M547 357 585 357 585 383 547 383Z" fill-rule="evenodd" clip-rule="evenodd"/></clipPath><clipPath id="clip38"><path d="M547 357 585 357 585 383 547 383Z" fill-rule="evenodd" clip-rule="evenodd"/></clipPath><clipPath id="clip39"><path d="M547 357 585 357 585 383 547 383Z" fill-rule="evenodd" clip-rule="evenodd"/></clipPath></defs><g clip-path="url(#clip0)"><rect x="0" y="0" width="1280" height="720" fill="#FFFFFF"/><rect x="301.5" y="142.5" width="290" height="184" stroke="#000000" stroke-width="3" stroke-miterlimit="8" fill="#FFFFFF"/><rect x="1.50005" y="410.5" width="290" height="184" stroke="#000000" stroke-width="3" stroke-miterlimit="8" fill="#FFFFFF"/><rect x="403.5" y="410.5" width="290" height="184" stroke="#000000" stroke-width="3" stroke-miterlimit="8" fill="#FFFFFF"/><rect x="920.5" y="410.5" width="290" height="184" stroke="#000000" stroke-width="3" stroke-miterlimit="8" fill="#FFFFFF"/><path d="M1.50016 448.169 38.169 448.169 49.5001 411.5 60.8311 448.169 97.4999 448.169 67.8341 470.831 79.1657 507.5 49.5001 484.837 19.8344 507.5 31.166 470.831Z" stroke="#AFABAB" stroke-miterlimit="8" fill="#AFABAB" fill-rule="evenodd"/><path d="M487.5 448.169 524.551 448.169 536 411.5 547.449 448.169 584.5 448.169 554.525 470.831 565.975 507.5 536 484.837 506.025 507.5 517.475 470.831Z" stroke="#AFABAB" stroke-miterlimit="8" fill="#AFABAB" fill-rule="evenodd"/><path d="M1114.5 534.551 1151.17 534.551 1162.5 497.5 1173.83 534.551 1210.5 534.551 1180.83 557.449 1192.17 594.5 1162.5 571.601 1132.83 594.5 1144.17 557.449Z" stroke="#AFABAB" stroke-miterlimit="8" fill="#AFABAB" fill-rule="evenodd"/><path d="M302.5 179.169 339.169 179.169 350.5 142.5 361.831 179.169 398.5 179.169 368.834 201.831 380.166 238.5 350.5 215.837 320.834 238.5 332.166 201.831Z" stroke="#AFABAB" stroke-miterlimit="8" fill="#ED7D31" fill-rule="evenodd"/><path d="M373.5 179.169 410.169 179.169 421.5 142.5 432.831 179.169 469.5 179.169 439.834 201.831 451.166 238.5 421.5 215.837 391.834 238.5 403.166 201.831Z" stroke="#D0CECE" stroke-miterlimit="8" fill="#4472C4" fill-rule="evenodd" fill-opacity="0.8"/><path d="M495.5 266.551 532.169 266.551 543.5 229.5 554.831 266.551 591.5 266.551 561.834 289.449 573.166 326.5 543.5 303.601 513.834 326.5 525.166 289.449Z" stroke="#AFABAB" stroke-miterlimit="8" fill="#70AD47" fill-rule="evenodd"/><g clip-path="url(#clip1)"><g clip-path="url(#clip2)"><g clip-path="url(#clip3)"><path d="M-2.68938-13.5545C-2.68938-17.6782-3.89063-21.6405-6.29314-25.4415-8.69567-29.2425-11.7257-32.2546-15.3832-34.4778-19.0408-36.701-22.6983-37.8306-26.3559-37.8664-29.5831-37.8664-32.147-36.952-34.0475-35.1233-34.3702-34.7647-34.6392-34.4599-34.8543-34.2089-35.0695-33.9579-35.2129-33.7786-35.2846-33.671L-35.3384-33.5096C-35.446-33.5096-35.9301-33.9758-36.7907-34.9081-37.0417-35.1233-37.3106-35.3743-37.5975-35.6611-37.8843-35.948-38.1712-36.2349-38.4581-36.5217-38.7449-36.8086-38.9243-37.0058-38.996-37.1134L-39.8028-37.9202-40.1255-37.9202C-40.6275-37.9202-40.8785-37.7947-40.8785-37.5437-40.8785-37.4003-40.3048-34.944-39.1573-30.1748-37.8664-25.1905-37.221-22.6804-37.221-22.6446-37.1493-22.4653-37.0596-22.3577-36.952-22.3218-36.8445-22.286-36.5217-22.2501-35.9839-22.2143L-35.1233-22.2143C-34.9081-22.4294-34.8005-22.5908-34.8005-22.6983-34.8005-22.7342-34.8185-22.8597-34.8543-23.0749-34.8902-23.29-34.926-23.6486-34.9619-24.1506-34.9978-24.6526-35.0157-25.2264-35.0157-25.8718-35.0157-28.4177-34.4419-30.641-33.2945-32.5415-32.147-34.4419-30.1927-35.4101-27.4316-35.446-26.7862-35.446-26.087-35.3922-25.3339-35.2846-24.5809-35.1771-23.6306-34.944-22.4832-34.5854-21.3357-34.2268-20.242-33.7248-19.2022-33.0793-18.1623-32.4339-17.0327-31.5733-15.8135-30.4975-14.5943-29.4218-13.5545-28.1488-12.6939-26.6786-11.8333-25.2084-10.9906-23.3797-10.1658-21.1923-9.34112-19.0049-8.78528-16.6024-8.49843-13.9848-8.42673-13.3393-8.39086-12.6401-8.39086-11.887-8.39086-10.1658-8.64188-8.64188-9.14388-7.31511-9.64588-5.98833-10.2913-4.96638-11.0802-4.24922-11.8691-3.53205-12.7656-2.92245-13.7696-2.42044-14.7737-1.91842-15.706-1.61363-16.5666-1.50605-17.4272-1.39848-18.234-1.32676-18.987-1.2909-20.9234-1.2909-22.6983-1.70327-24.312-2.52801-25.9256-3.35276-27.0372-4.41058-27.6468-5.70148-27.7544-5.98833-28.0233-6.97447-28.4536-8.65979-28.8839-10.3451-29.0991-11.2954-29.0991-11.5105-29.0991-11.7974-28.866-11.9767-28.3998-12.0484-27.9336-12.1201-26.8579-12.1739-25.1726-12.2098L-23.1824-12.2098C-22.9673-12.4249-22.8597-12.5684-22.8597-12.6401-22.8597-12.7118-22.8956-13.0525-22.9673-13.662-23.1107-14.1282-23.29-14.4688-23.5052-14.684L-24.4195-14.684C-25.8539-14.6123-28.3639-14.5764-31.9498-14.5764-33.3842-14.5764-34.5495-14.5764-35.446-14.5764-36.3425-14.5764-36.9879-14.5943-37.3823-14.6302-37.7768-14.6661-37.9919-14.6661-38.0278-14.6302-38.5298-14.6302-38.7808-14.4688-38.7808-14.1461-38.7808-14.0744-38.7449-13.8234-38.6732-13.3931-38.494-12.7118-38.3146-12.3353-38.1354-12.2636-38.0278-12.2277-37.7589-12.2098-37.3286-12.2098-36.6114-12.2098-35.8763-12.156-35.1233-12.0484-34.8722-11.9408-34.693-11.7795-34.5854-11.5643-34.4778-11.3492-34.2268-10.4348-33.8324-8.82116-33.5096-7.63783-33.2407-6.63378-33.0256-5.80905-32.1291-2.1515-31.6271-0.268938-31.5195-0.161363-31.4478-0.0896461-31.3581-0.0537875-31.2506-0.0537875-30.892-0.0537875-30.39-0.412371-29.7445-1.12954-29.0991-1.8467-28.6867-2.40251-28.5074-2.79695-28.5074-2.83281-28.4715-2.83281-28.3998-2.79695-28.3281-2.76109-28.2205-2.67145-28.0771-2.52801-25.4236-0.0537875-21.8377 1.18333-17.3196 1.18333-12.9807 1.18333-9.46661-0.197221-6.77723-2.95831-4.08785-5.71939-2.72524-9.25146-2.68938-13.5545Z" transform="matrix(-1.0625 -0 -0 1 19 248.89)"/><path d="M-1.52111-16.6181C-1.03943-16.6181-0.798584-16.7196-0.798584-16.9224-0.798584-17.0491-1.0014-17.759-1.40703-19.0519-1.81266-20.3449-2.24364-21.6251-2.69997-22.8927L-3.34645-24.7561C-3.4732-25.2124-3.63799-25.542-3.84081-25.7448L-21.6378-25.7448-25.0603-25.7448C-25.8716-25.7448-26.3533-25.7321-26.5054-25.7068-26.6575-25.6814-26.7462-25.5673-26.7716-25.3645-26.7716-25.2124-26.5561-23.7674-26.1251-21.0294-25.6941-18.2914-25.4533-16.9097-25.4026-16.8843-25.4026-16.7069-25.1617-16.6181-24.68-16.6181-24.4519-16.6181-24.2998-16.6181-24.2237-16.6181-24.1476-16.6181-24.0716-16.6815-23.9955-16.8083L-23.9195-16.9224C-23.9195-17.0745-23.9955-17.6449-24.1476-18.6336-24.2998-19.6223-24.3758-20.3956-24.3758-20.9533-24.3758-21.8406-24.211-22.5125-23.8815-22.9688-23.5519-23.4251-22.8547-23.742-21.7899-23.9195-21.6632-23.9448-20.9279-23.9702-19.5843-23.9955-18.4181-23.9955-17.6829-23.9829-17.3787-23.9575-17.0745-23.9321-16.8463-23.8308-16.6942-23.6533-16.6688-23.6279-15.7689-20.0913-13.9942-13.0435-12.2196-5.99573-11.3323-2.40843-11.3323-2.28167-11.3323-1.97745-12.4478-1.79998-14.6787-1.74928-15.49-1.74928-16.0097-1.7366-16.2379-1.71125-16.466-1.6859-16.5801-1.57181-16.5801-1.369-16.5801-1.24224-16.5421-1.06478-16.466-0.836611-16.3646-0.380278-16.2505-0.114083-16.1238-0.0380278L-16.0477 0C-15.9717 0-15.883 0-15.7815 0-15.6548 0-14.9956-0.0126759-13.8041-0.0380278-12.6126-0.0633798-10.9013-0.0760556-8.67034-0.0760556-5.39995-0.0760556-3.32109-0.0507036-2.43378 0L-1.86336 0C-1.71125-0.152111-1.63519-0.266195-1.63519-0.34225-1.63519-0.418306-1.66055-0.646472-1.71125-1.02675-1.81266-1.35633-1.93942-1.59717-2.09153-1.74928L-3.15631-1.74928-3.57461-1.74928C-5.60275-1.74928-6.80697-1.86336-7.18725-2.09153-7.21262-2.11688-7.23794-2.12956-7.26331-2.12956-7.39005-2.20561-7.51684-2.45913-7.64359-2.89011-7.77033-3.32109-8.2774-5.31123-9.1647-8.86047-9.59567-10.5844-9.95062-11.9914-10.2295-13.0816-12.0041-20.0533-12.8914-23.6153-12.8914-23.7674-12.8914-23.8941-12.5238-23.9575-11.7886-23.9575L-10.6098-23.9575C-8.91117-23.9575-7.7957-23.8815-7.26331-23.7293-6.12247-23.4758-5.23517-22.9561-4.60136-22.1702-3.96755-21.3843-3.28306-19.9139-2.54786-17.759-2.3704-17.2012-2.24364-16.8717-2.16758-16.7703-2.09153-16.6688-1.91406-16.6181-1.63519-16.6181L-1.52111-16.6181Z" transform="matrix(-1.0625 -0 -0 1 63.9193 226.675)"/><path d="M-1.12954-15.437C-1.1654-15.5446-1.20125-15.6881-1.23711-15.8673-1.27297-16.0466-1.36262-16.4411-1.50605-17.0506-1.64949-17.6602-1.82878-18.2161-2.04393-18.7181-2.25908-19.2201-2.52801-19.8117-2.85074-20.4931-3.17347-21.1744-3.53205-21.7123-3.92649-22.1067-4.32093-22.5011-4.78709-22.8956-5.32497-23.29-5.86284-23.6844-6.4545-23.8458-7.09996-23.7741-8.13983-23.7741-9.05422-23.5589-9.84312-23.1286-10.632-22.6983-11.1878-22.3039-11.5105-21.9453-11.8333-21.5867-12.0305-21.2282-12.1022-20.8696-12.1739-20.6544-12.2277-20.5468-12.2636-20.5468-12.2994-20.5468-12.4428-20.6723-12.6939-20.9234-14.4151-22.788-16.4052-23.7203-18.6643-23.7203L-18.8256-23.7203C-20.5468-23.7203-21.8377-22.9852-22.6983-21.515-22.9852-20.8337-23.1286-20.1703-23.1286-19.5249-23.1286-18.4491-22.8956-17.5885-22.4294-16.9431-21.9632-16.2976-21.4971-15.8852-21.0309-15.706-20.5648-15.5267-20.1165-15.4549-19.6862-15.4908-18.9691-15.4908-18.3953-15.6881-17.965-16.0825-17.5347-16.4769-17.3196-16.9969-17.3196-17.6423-17.3196-19.3635-18.3236-20.511-20.3317-21.0847-19.5428-21.5509-18.8973-21.784-18.3953-21.784-16.3873-21.784-14.5405-20.4572-12.8552-17.8037-12.4966-17.2299-12.2277-16.6383-12.0484-16.0287-11.8691-15.4191-11.2595-13.0345-10.2196-8.87494-9.00043-3.85478-8.30119-1.18333-8.12192-0.860601-7.65574 0.107575-6.88481 0.591663-5.80905 0.591663-5.34289 0.591663-4.96638 0.484088-4.67952 0.268938-4.39265 0.0537875-4.19543-0.161363-4.08785-0.376513-3.98028-0.591663-3.94442-0.770953-3.98028-0.914388-3.98028-1.38055-4.69744-4.46437-6.13178-10.1658-7.56613-15.8673-8.28328-19.0408-8.28328-19.6862-8.28328-21.0847-7.8171-21.784-6.88481-21.784-6.13178-21.784-5.48633-21.282-4.94845-20.2779-4.41058-19.2739-3.98028-18.1802-3.65755-16.9969-3.33483-15.8135-3.1376-15.1681-3.06589-15.0605-2.99417-14.9888-2.7073-14.9529-2.20529-14.9529L-1.45226-14.9529C-1.23711-15.1681-1.12954-15.3294-1.12954-15.437Z" transform="matrix(-1.0625 -0 -0 1 95.2257 248.89)"/></g></g></g><g clip-path="url(#clip4)"><g clip-path="url(#clip5)"><g clip-path="url(#clip6)"><path d="M-1.40736-19.2339C-1.45204-19.3679-1.49671-19.5466-1.54139-19.77-1.58607-19.9934-1.69776-20.4849-1.87648-21.2444-2.05519-22.0039-2.27858-22.6964-2.54665-23.3219-2.81471-23.9474-3.1498-24.6846-3.5519-25.5335-3.954-26.3824-4.40078-27.0525-4.89224-27.544-5.3837-28.0354-5.96451-28.5269-6.63468-29.0184-7.30485-29.5098-8.04204-29.7108-8.84624-29.6215-10.1419-29.6215-11.2812-29.3534-12.2641-28.8173-13.247-28.2812-13.9395-27.7897-14.3416-27.3429-14.7437-26.8961-14.9895-26.4494-15.0788-26.0026-15.1682-25.7345-15.2352-25.6005-15.2799-25.6005-15.3246-25.6005-15.5032-25.7568-15.816-26.0696-17.9606-28.3929-20.4402-29.5545-23.2549-29.5545L-23.4559-29.5545C-25.6005-29.5545-27.2089-28.6386-28.2812-26.8068-28.6386-25.9579-28.8173-25.1314-28.8173-24.3272-28.8173-22.9868-28.5269-21.9146-27.9461-21.1104-27.3653-20.3062-26.7845-19.7923-26.2036-19.569-25.6228-19.3456-25.0644-19.2562-24.5282-19.3009-23.6347-19.3009-22.9198-19.5466-22.3837-20.0381-21.8475-20.5295-21.5795-21.1774-21.5795-21.9816-21.5795-24.1261-22.8305-25.5558-25.3324-26.2707-24.3495-26.8515-23.5453-27.1419-22.9198-27.1419-20.4179-27.1419-18.1169-25.4888-16.0171-22.1826-15.5703-21.4678-15.2352-20.7306-15.0118-19.9711-14.7884-19.2116-14.0289-16.2404-12.7332-11.0578-11.2142-4.80289-10.3429-1.47437-10.1196-1.07227-9.53873 0.134034-8.57818 0.737187-7.23784 0.737187-6.65702 0.737187-6.1879 0.603153-5.83048 0.335085-5.47306 0.067017-5.22733-0.201051-5.09329-0.469119-4.95926-0.737187-4.91458-0.960575-4.95926-1.13929-4.95926-1.72011-5.85282-5.56241-7.63994-12.6662-9.42708-19.77-10.3206-23.724-10.3206-24.5282-10.3206-26.2707-9.73978-27.1419-8.57818-27.1419-7.63994-27.1419-6.83573-26.5164-6.16556-25.2654-5.49539-24.0144-4.95926-22.6517-4.55716-21.1774-4.15505-19.703-3.90932-18.8988-3.81997-18.7648-3.73061-18.6754-3.37319-18.6307-2.7477-18.6307L-1.80946-18.6307C-1.54139-18.8988-1.40736-19.0998-1.40736-19.2339Z" fill="#ED7D31" transform="matrix(-1.04762 -0 -0 1 295 515.262)"/><path d="M-4.54858-27.7179C-6.31745-30.2765-8.73388-31.5558-11.7979-31.5558-13.3141-31.5558-14.8303-31.1451-16.3465-30.3239-17.8626-29.5026-19.0945-28.0496-20.0422-25.9648-21.2109-23.3431-21.7953-19.7421-21.7953-15.1619-21.7953-10.2659-21.1162-6.5228-19.7579-3.93262-19.1262-2.60596-18.2575-1.54778-17.1519-0.758096-16.0464 0.0315874-15.0829 0.521191-14.2617 0.710715-13.4404 0.900239-12.635 1.01079-11.8453 1.04238-11.024 1.04238-10.2027 0.94762-9.38144 0.758096-8.56019 0.568572-7.59674 0.0631745-6.4912-0.758096-5.38566-1.57937-4.51699-2.63754-3.88524-3.93262-2.52699-6.5228-1.84786-10.2659-1.84786-15.1619-1.84786-20.6581-2.7481-24.8434-4.54858-27.7179ZM-15.2093-28.2865C-14.2617-29.2972-13.1403-29.8027-11.8453-29.8027-10.5186-29.8027-9.38144-29.2972-8.43382-28.2865-7.64412-27.4652-7.12293-26.3281-6.87025-24.875-6.61756-23.422-6.4912-20.3896-6.4912-15.7779-6.4912-10.7871-6.61756-7.50198-6.87025-5.92263-7.12293-4.34326-7.6915-3.09556-8.57596-2.17953-9.46043-1.23191-10.5502-0.758096-11.8453-0.758096-13.1088-0.758096-14.1827-1.23191-15.0672-2.17953-15.9832-3.12715-16.5518-4.45382-16.7729-6.15953-16.994-7.86525-17.1203-11.0714-17.1519-15.7779-17.1519-20.3581-17.0256-23.3746-16.7729-24.8277-16.5202-26.2807-15.999-27.4336-15.2093-28.2865Z" fill="#ED7D31" transform="matrix(-1.04762 -0 -0 1 326.664 525.314)"/></g></g></g><g clip-path="url(#clip7)"><g clip-path="url(#clip8)"><g clip-path="url(#clip9)"><path d="M1.52352 20.8214C1.57189 20.9665 1.62025 21.16 1.66862 21.4018 1.71699 21.6436 1.83789 22.1757 2.03136 22.9979 2.22482 23.8201 2.46665 24.5698 2.75685 25.2469 3.04704 25.924 3.40978 26.722 3.84507 27.641 4.28036 28.56 4.76402 29.2855 5.29604 29.8175 5.82806 30.3495 6.45682 30.8815 7.18231 31.4135 7.90779 31.9455 8.70583 32.1632 9.57641 32.0665 10.979 32.0665 12.2123 31.7763 13.2764 31.1959 14.3405 30.6155 15.0901 30.0835 15.5254 29.5998 15.9607 29.1161 16.2267 28.6325 16.3234 28.1488 16.4201 27.8586 16.4927 27.7136 16.5411 27.7136 16.5895 27.7136 16.7829 27.8828 17.1215 28.2214 19.443 30.7364 22.1273 31.9939 25.1744 31.9939L25.392 31.9939C27.7136 31.9939 29.4547 31.0024 30.6155 29.0194 31.0024 28.1005 31.1959 27.2057 31.1959 26.3351 31.1959 24.8842 30.8815 23.7234 30.2528 22.8528 29.624 21.9822 28.9953 21.426 28.3665 21.1842 27.7377 20.9424 27.1332 20.8456 26.5528 20.894 25.5855 20.894 24.8116 21.16 24.2312 21.692 23.6508 22.224 23.3606 22.9253 23.3606 23.7959 23.3606 26.1175 24.7149 27.6652 27.4234 28.439 26.3593 29.0678 25.4887 29.3822 24.8116 29.3822 22.1032 29.3822 19.6123 27.5926 17.3391 24.0136 16.8554 23.2397 16.4927 22.4417 16.2509 21.6195 16.0091 20.7973 15.1868 17.5809 13.7842 11.9705 12.1398 5.19932 11.1966 1.59607 10.9548 1.16078 10.3261-0.145097 9.28622-0.798034 7.83524-0.798034 7.20649-0.798034 6.69865-0.652937 6.31172-0.362743 5.9248-0.0725486 5.65879 0.217646 5.51369 0.50784 5.36859 0.798034 5.32023 1.03986 5.36859 1.23333 5.36859 1.86208 6.33591 6.02153 8.27054 13.7117 10.2052 21.4018 11.1725 25.6822 11.1725 26.5528 11.1725 28.439 10.5437 29.3822 9.28622 29.3822 8.27054 29.3822 7.39995 28.7051 6.67447 27.3508 5.94898 25.9965 5.36859 24.5214 4.9333 22.9253 4.49801 21.3293 4.232 20.4587 4.13527 20.3136 4.03854 20.2169 3.65161 20.1685 2.97449 20.1685L1.95881 20.1685C1.66862 20.4587 1.52352 20.6763 1.52352 20.8214Z" fill="#4472C4" transform="matrix(1 0 0 -1.03372 699 512.449)"/><path d="M10.9252 29.6467 10.2584 29.3902C9.77966 29.2193 9.09573 29.0483 8.20669 28.8773 7.31765 28.7063 6.32598 28.5866 5.23177 28.5183L4.25722 28.5183 4.25722 30.8777 5.23177 30.8777C6.83889 30.9461 8.32636 31.2025 9.69416 31.6471 11.062 32.0916 12.0194 32.5019 12.5665 32.8781 13.1136 33.2542 13.5923 33.6304 14.0027 34.0065 14.071 34.1091 14.2762 34.1604 14.6182 34.1604 14.9259 34.1604 15.2166 34.0578 15.4901 33.8526L15.4901 18.5164 15.5414 3.1288C15.7808 2.88944 15.986 2.73556 16.1569 2.66718 16.3279 2.59879 16.7382 2.5304 17.3879 2.46201 18.0376 2.39362 19.0976 2.35942 20.568 2.35942L21.9016 2.35942 21.9016 0 21.3374 0C20.6193 0.102584 17.9008 0.153875 13.182 0.153875 8.53152 0.153875 5.84727 0.102584 5.12918 0L4.51368 0 4.51368 2.35942 5.84727 2.35942C6.59957 2.35942 7.24923 2.35942 7.79636 2.35942 8.34349 2.35942 8.7709 2.37652 9.07865 2.41072 9.3864 2.44491 9.65994 2.4962 9.89932 2.56459 10.1387 2.63298 10.2754 2.66718 10.3097 2.66718 10.3439 2.66718 10.4465 2.75266 10.6174 2.92363 10.7884 3.09461 10.8909 3.163 10.9252 3.1288L10.9252 29.6467Z" fill="#4472C4" transform="matrix(1 0 0 -1.03372 731.719 523.699)"/></g></g></g><g clip-path="url(#clip10)"><g clip-path="url(#clip11)"><g clip-path="url(#clip12)"><path d="M3.1391 13.2851C3.1391 13.2851 3.1391 13.528 3.1391 14.0138 3.1391 14.4997 3.40069 14.8733 3.92388 15.1349L20.6844 15.1349 20.6844 23.5433 20.7405 31.9516C21.1142 32.4374 21.4692 32.6803 21.8055 32.6803 22.2914 32.6803 22.665 32.4 22.9266 31.8394L22.9266 15.1349 39.6311 15.1349C40.1917 14.836 40.472 14.4623 40.472 14.0138 40.472 13.5654 40.1917 13.1917 39.6311 12.8927L22.9266 12.8927 22.9266-3.81176C22.6277-4.33495 22.2914-4.59654 21.9176-4.59654L21.8055-4.59654 21.6934-4.59654C21.245-4.59654 20.9087-4.33495 20.6844-3.81176L20.6844 12.8927 3.92388 12.8927C3.40069 13.1543 3.1391 13.528 3.1391 14.0138Z" transform="matrix(1 0 0 -1.04321 758 515.149)"/><path d="M4.37232 3.36332C4.37232 4.26021 4.68997 5.04498 5.32526 5.71765 5.96054 6.39031 6.76403 6.72664 7.73564 6.72664 8.63253 6.72664 9.4173 6.4277 10.09 5.82976 10.7626 5.23183 11.1176 4.42837 11.155 3.41938 11.155 2.48512 10.8374 1.68166 10.2021 1.009 9.5668 0.336332 8.7633 0 7.7917 0 6.82009 0 6.01659 0.317647 5.38131 0.952941 4.74602 1.58823 4.40969 2.3917 4.37232 3.36332Z" transform="matrix(1 0 0 -1.04321 801.611 515.149)"/><path d="M4.37232 3.36332C4.37232 4.26021 4.68997 5.04498 5.32526 5.71765 5.96054 6.39031 6.76403 6.72664 7.73564 6.72664 8.63253 6.72664 9.4173 6.4277 10.09 5.82976 10.7626 5.23183 11.1176 4.42837 11.155 3.41938 11.155 2.48512 10.8374 1.68166 10.2021 1.009 9.5668 0.336332 8.7633 0 7.7917 0 6.82009 0 6.01659 0.317647 5.38131 0.952941 4.74602 1.58823 4.40969 2.3917 4.37232 3.36332Z" transform="matrix(1 0 0 -1.04321 826.539 515.149)"/><path d="M4.37232 3.36332C4.37232 4.26021 4.68997 5.04498 5.32526 5.71765 5.96054 6.39031 6.76403 6.72664 7.73564 6.72664 8.63253 6.72664 9.4173 6.4277 10.09 5.82976 10.7626 5.23183 11.1176 4.42837 11.155 3.41938 11.155 2.48512 10.8374 1.68166 10.2021 1.009 9.5668 0.336332 8.7633 0 7.7917 0 6.82009 0 6.01659 0.317647 5.38131 0.952941 4.74602 1.58823 4.40969 2.3917 4.37232 3.36332Z" transform="matrix(1 0 0 -1.04321 851.461 515.149)"/><path d="M3.1391 13.2851C3.1391 13.2851 3.1391 13.528 3.1391 14.0138 3.1391 14.4997 3.40069 14.8733 3.92388 15.1349L20.6844 15.1349 20.6844 23.5433 20.7405 31.9516C21.1142 32.4374 21.4692 32.6803 21.8055 32.6803 22.2914 32.6803 22.665 32.4 22.9266 31.8394L22.9266 15.1349 39.6311 15.1349C40.1917 14.836 40.472 14.4623 40.472 14.0138 40.472 13.5654 40.1917 13.1917 39.6311 12.8927L22.9266 12.8927 22.9266-3.81176C22.6277-4.33495 22.2914-4.59654 21.9176-4.59654L21.8055-4.59654 21.6934-4.59654C21.245-4.59654 20.9087-4.33495 20.6844-3.81176L20.6844 12.8927 3.92388 12.8927C3.40069 13.1543 3.1391 13.528 3.1391 14.0138Z" transform="matrix(1 0 0 -1.04321 876.389 515.149)"/></g></g></g><g clip-path="url(#clip13)"><g clip-path="url(#clip14)"><g clip-path="url(#clip15)"><path d="M3.09512 13.099C3.09512 13.099 3.09512 13.3385 3.09512 13.8175 3.09512 14.2965 3.35304 14.6649 3.86889 14.9229L20.3946 14.9229 20.3946 23.2134 20.4499 31.5039C20.8184 31.9829 21.1684 32.2224 21.5 32.2224 21.979 32.2224 22.3475 31.946 22.6054 31.3933L22.6054 14.9229 39.0758 14.9229C39.6285 14.6281 39.9049 14.2596 39.9049 13.8175 39.9049 13.3753 39.6285 13.0068 39.0758 12.7121L22.6054 12.7121 22.6054-3.75835C22.3106-4.27421 21.979-4.53213 21.6105-4.53213L21.5-4.53213 21.3895-4.53213C20.9473-4.53213 20.6157-4.27421 20.3946-3.75835L20.3946 12.7121 3.86889 12.7121C3.35304 12.97 3.09512 13.3385 3.09512 13.8175Z" transform="matrix(1 0 0 -1.03101 358 515.274)"/></g></g></g><g clip-path="url(#clip16)"><g clip-path="url(#clip17)"><g clip-path="url(#clip18)"><path d="M-16.4812-2.27875C-15.9512-1.81946-15.174-1.32485-14.1494-0.794913-13.1249-0.264971-12.0473 0-10.9168 0-8.69104 0-6.90689-0.794913-5.56439-2.38474-4.22187-3.97456-3.53295-6.00599-3.49762-8.47907-3.49762-12.1887-4.8578-15.5979-7.57817-18.7069-10.2985-21.816-13.3192-23.3881-16.6402-23.4234-18.3006-23.4234-19.8375-22.5755-21.2507-20.8797L-21.4096-21.0917C-21.4803-21.1977-21.5686-21.3037-21.6746-21.4096-21.7806-21.5156-21.9396-21.657-22.1516-21.8336-22.3635-22.0102-22.5932-22.1339-22.8405-22.2046-23.0878-22.2752-23.3704-22.3282-23.6884-22.3635-24.183-22.3635-24.5893-22.2046-24.9073-21.8866-25.2252-21.5686-25.4019-21.233-25.4372-20.8797-25.4372-20.3498-24.4303-16.0749-22.4165-8.05511-20.4028-0.0353295-19.3429 4.06289-19.2369 4.23953-18.601 6.14732-17.2408 7.7195-15.1563 8.95601-13.0719 10.1925-10.6872 10.8285-8.00212 10.8638-3.02067 10.8638-0.529942 9.66259-0.529942 7.2602-0.529942 6.34165-0.847907 5.52904-1.48384 4.82247-2.11977 4.11588-2.93234 3.76259-3.92157 3.76259-4.45151 3.76259-4.94612 3.92157-5.40541 4.23953-5.86471 4.5575-6.11198 5.1051-6.14732 5.88235-6.14732 6.23566-6.11198 6.57128-6.04134 6.88924-5.97069 7.20721-5.84701 7.45453-5.67038 7.63116-5.49375 7.80779-5.35241 7.98447-5.24642 8.1611-5.14043 8.33773-5.01678 8.47907-4.87546 8.58506L-4.76948 8.69104-4.82247 8.69104C-5.17577 8.79703-6.23566 8.85003-8.00212 8.85003-9.34462 8.85003-10.4045 8.63805-11.1818 8.2141-11.9943 7.82549-12.7539 7.24255-13.4605 6.46529-14.1671 5.68802-14.6617 4.8578-14.9444 3.97456-15.1563 3.3033-15.439 2.20809-15.7923 0.688924-16.2516-1.00689-16.4812-1.99612-16.4812-2.27875ZM-20.3498-17.3821-20.1378-17.965C-20.0318-18.3536-19.9435-18.6186-19.8728-18.7599-19.8022-18.9013-19.6962-19.1485-19.5548-19.5019-19.4135-19.8552-19.2369-20.1024-19.0249-20.2438-18.8129-20.3851-18.5833-20.5794-18.336-20.8267-18.0887-21.074-17.7707-21.233-17.3821-21.3037-16.9935-21.3743-16.6048-21.4273-16.2162-21.4626-14.6617-21.4626-13.1602-20.5264-11.7117-18.6539-10.6518-17.2761-9.76857-15.174-9.062-12.3476-8.35543-9.5213-8.00212-7.47218-8.00212-6.20032-8.00212-3.40929-9.09735-2.01378-11.2878-2.01378-13.2662-2.01378-15.2093-3.25031-17.1171-5.72337L-17.5411-6.25331-20.3498-17.3821Z" transform="matrix(-1.00714 -0 -0 1 118 629.78)"/><path d="M-3.59682-21.9181C-4.99557-23.9413-6.90638-24.9529-9.32925-24.9529-10.5282-24.9529-11.7271-24.6282-12.9261-23.9788-14.125-23.3294-15.0992-22.1804-15.8485-20.5319-16.7727-18.4587-17.2348-15.6112-17.2348-11.9894-17.2348-8.11784-16.6978-5.15795-15.6237-3.10975-15.1241-2.06068-14.4372-1.22392-13.563-0.59947-12.6888 0.0249779-11.9269 0.412136-11.2775 0.562003-10.6281 0.711871-9.99118 0.799292-9.36672 0.824271-8.71731 0.824271-8.06786 0.749338-7.41844 0.59947-6.76903 0.449603-6.00718 0.0499557-5.13296-0.59947-4.25875-1.24889-3.57184-2.08566-3.07228-3.10975-1.99823-5.15795-1.46121-8.11784-1.46121-11.9894-1.46121-16.3356-2.17308-19.6451-3.59682-21.9181ZM-12.0269-22.3677C-11.2775-23.167-10.3908-23.5667-9.36672-23.5667-8.31765-23.5667-7.41844-23.167-6.6691-22.3677-6.04464-21.7183-5.63251-20.8191-5.4327-19.6701-5.23289-18.5211-5.13296-16.1232-5.13296-12.4765-5.13296-8.52997-5.23289-5.93224-5.4327-4.68336-5.63251-3.43447-6.08211-2.44783-6.78151-1.72348-7.4809-0.974139-8.34264-0.59947-9.36672-0.59947-10.3658-0.59947-11.2151-0.974139-11.9145-1.72348-12.6388-2.47281-13.0884-3.52189-13.2633-4.87069-13.4381-6.2195-13.538-8.75477-13.563-12.4765-13.563-16.0983-13.4631-18.4836-13.2633-19.6326-13.0635-20.7816-12.6513-21.6933-12.0269-22.3677Z" transform="matrix(-1.00714 -0 -0 1 143.459 637.729)"/></g></g></g><g clip-path="url(#clip19)"><g clip-path="url(#clip20)"><g clip-path="url(#clip21)"><path d="M16.9521 2.34386C16.407 1.87145 15.6075 1.36271 14.5537 0.817624 13.4999 0.272541 12.3915 0 11.2287 0 8.93936 0 7.10423 0.817624 5.72337 2.45287 4.3425 4.08812 3.63389 6.17759 3.59755 8.72133 3.59755 12.5369 4.9966 16.0436 7.79469 19.2414 10.5928 22.4393 13.6997 24.0563 17.1156 24.0927 18.8235 24.0927 20.4043 23.2205 21.8578 21.4763L22.0213 21.6943C22.094 21.8033 22.1849 21.9123 22.2939 22.0213 22.4029 22.1304 22.5664 22.2757 22.7845 22.4574 23.0025 22.6391 23.2387 22.7663 23.4931 22.839 23.7475 22.9116 24.0382 22.9661 24.3652 23.0025 24.8739 23.0025 25.2918 22.839 25.6189 22.5119 25.9459 22.1849 26.1276 21.8397 26.164 21.4763 26.164 20.9312 25.1283 16.5342 23.057 8.28526 20.9857 0.0363389 19.8955-4.17897 19.7865-4.36066 19.1324-6.32296 17.7333-7.94006 15.5894-9.2119 13.4454-10.4837 10.9925-11.1378 8.23075-11.1742 3.10697-11.1742 0.545083-9.93866 0.545083-7.46764 0.545083-6.52284 0.872133-5.68701 1.52623-4.96025 2.18033-4.23348 3.01612-3.87009 4.03361-3.87009 4.5787-3.87009 5.08744-4.03361 5.55985-4.36066 6.03227-4.68771 6.2866-5.25096 6.32296-6.05042 6.32296-6.41383 6.2866-6.75903 6.21395-7.08608 6.14129-7.41313 6.01406-7.66752 5.83239-7.84919 5.65071-8.03087 5.50534-8.2126 5.39632-8.39428 5.2873-8.57595 5.16012-8.72133 5.01476-8.83034L4.90575-8.93936 4.96025-8.93936C5.32365-9.04838 6.41383-9.10288 8.23075-9.10288 9.61161-9.10288 10.7018-8.88485 11.5012-8.44878 12.337-8.04908 13.1183-7.44948 13.8451-6.65001 14.5719-5.85054 15.0806-4.9966 15.3713-4.08812 15.5894-3.39768 15.8801-2.27118 16.2435-0.708608 16.7159 1.03566 16.9521 2.05315 16.9521 2.34386ZM20.9312 17.8787 20.7132 18.4783C20.6041 18.878 20.5133 19.1506 20.4406 19.2959 20.3679 19.4413 20.2589 19.6956 20.1136 20.0591 19.9682 20.4225 19.7865 20.6768 19.5685 20.8222 19.3504 20.9675 19.1143 21.1674 18.8599 21.4218 18.6055 21.6761 18.2784 21.8397 17.8787 21.9123 17.479 21.985 17.0792 22.0395 16.6795 22.0759 15.0806 22.0759 13.5362 21.1129 12.0463 19.1869 10.9562 17.7697 10.0477 15.6075 9.32092 12.7004 8.59416 9.79334 8.23075 7.68567 8.23075 6.37747 8.23075 3.5067 9.35728 2.07132 11.6103 2.07132 13.6452 2.07132 15.6439 3.34317 17.6062 5.8869L18.0422 6.43198 20.9312 17.8787Z" transform="matrix(1 0 0 -1 542 630.459)"/><path d="M8.20846 22.2746 7.70747 22.0819C7.3478 21.9535 6.83395 21.825 6.16598 21.6965 5.49801 21.5681 4.75293 21.4781 3.93081 21.4268L3.1986 21.4268 3.1986 23.1995 3.93081 23.1995C5.1383 23.2509 6.25589 23.4435 7.28356 23.7776 8.31124 24.1116 9.03057 24.4199 9.44165 24.7024 9.85273 24.985 10.2124 25.2677 10.5207 25.5503 10.5721 25.6273 10.7262 25.6659 10.9831 25.6659 11.2144 25.6659 11.4328 25.5888 11.6383 25.4347L11.6383 13.912 11.6768 2.35078C11.8567 2.17094 12.0108 2.05532 12.1393 2.00394 12.2677 1.95256 12.576 1.90118 13.0642 1.84979 13.5523 1.79841 14.3487 1.77272 15.4535 1.77272L16.4555 1.77272 16.4555 0 16.0315 0C15.492 0.0770747 13.4495 0.115612 9.9041 0.115612 6.41003 0.115612 4.39326 0.0770747 3.85374 0L3.39129 0 3.39129 1.77272 4.39326 1.77272C4.95849 1.77272 5.4466 1.77272 5.85768 1.77272 6.26876 1.77272 6.58989 1.78556 6.82111 1.81126 7.05234 1.83695 7.25786 1.87549 7.43771 1.92687 7.61756 1.97825 7.7203 2.00394 7.74601 2.00394 7.77171 2.00394 7.84879 2.06817 7.97723 2.19663 8.10568 2.32509 8.18275 2.37647 8.20846 2.35078L8.20846 22.2746Z" transform="matrix(1 0 0 -1 568 638.635)"/></g></g></g><g clip-path="url(#clip22)"><g clip-path="url(#clip23)"><g clip-path="url(#clip24)"><path d="M14.639 2.02404C14.1683 1.6161 13.4779 1.17677 12.5679 0.706062 11.6579 0.235354 10.7007 0 9.69658 0 7.71961 0 6.13488 0.706062 4.94243 2.11819 3.74998 3.53031 3.13805 5.33467 3.10667 7.53133 3.10667 10.8263 4.31482 13.8545 6.73112 16.616 9.14741 19.3775 11.8304 20.7739 14.7802 20.8053 16.2551 20.8053 17.6202 20.0522 18.8754 18.5459L19.0166 18.7342C19.0793 18.8283 19.1578 18.9225 19.252 19.0166 19.3461 19.1107 19.4873 19.2363 19.6756 19.3932 19.8639 19.5501 20.0678 19.6599 20.2875 19.7227 20.5072 19.7854 20.7582 19.8325 21.0406 19.8639 21.48 19.8639 21.8409 19.7227 22.1233 19.4402 22.4057 19.1578 22.5626 18.8597 22.594 18.5459 22.594 18.0752 21.6996 14.2781 19.9109 7.15476 18.1223 0.0313805 17.1808-3.60876 17.0867-3.76566 16.5219-5.46021 15.3137-6.85666 13.4622-7.95496 11.6108-9.05327 9.49263-9.61812 7.10769-9.64951 2.68304-9.64951 0.470708-8.58256 0.470708-6.4487 0.470708-5.63282 0.753133-4.91104 1.31798-4.28344 1.88283-3.65583 2.60458-3.34203 3.48324-3.34203 3.95395-3.34203 4.39327-3.48324 4.80122-3.76566 5.20918-4.04809 5.42882-4.53449 5.46021-5.22486 5.46021-5.53868 5.42882-5.83678 5.36607-6.1192 5.30333-6.40163 5.19346-6.62131 5.03658-6.77819 4.87969-6.93508 4.75415-7.09202 4.66001-7.2489 4.56587-7.40579 4.45604-7.53133 4.33051-7.62547L4.23637-7.71961 4.28344-7.71961C4.59725-7.81375 5.53868-7.86082 7.10769-7.86082 8.30013-7.86082 9.24155-7.67254 9.93194-7.29597 10.6537-6.9508 11.3284-6.43302 11.956-5.74264 12.5836-5.05225 13.0229-4.31482 13.274-3.53031 13.4622-2.93408 13.7133-1.96128 14.0271-0.61192 14.4351 0.894345 14.639 1.773 14.639 2.02404ZM18.0752 15.4392 17.8869 15.957C17.7928 16.3022 17.7143 16.5375 17.6515 16.6631 17.5888 16.7886 17.4947 17.0082 17.3691 17.3221 17.2436 17.6359 17.0867 17.8555 16.8984 17.981 16.7101 18.1066 16.5062 18.2791 16.2865 18.4988 16.0668 18.7185 15.7844 18.8597 15.4392 18.9225 15.0941 18.9852 14.7488 19.0323 14.4037 19.0637 13.0229 19.0637 11.6892 18.2321 10.4026 16.5689 9.46123 15.3451 8.6767 13.4779 8.04911 10.9675 7.42151 8.45707 7.10769 6.63698 7.10769 5.50728 7.10769 3.02822 8.0805 1.78869 10.0261 1.78869 11.7834 1.78869 13.5093 2.88701 15.2039 5.08365L15.5804 5.55435 18.0752 15.4392Z" transform="matrix(1 0 0 -1.07207 1033 628.98)"/><path d="M0.69886 9.55109C0.721047 9.68421 0.754326 9.86168 0.798697 10.0836 0.843068 10.3054 0.976184 10.7269 1.19805 11.3482 1.41991 11.9694 1.64177 12.4907 1.86363 12.9123 2.08549 13.3338 2.44046 13.7442 2.92856 14.1436 3.41666 14.5429 3.90473 14.7315 4.39284 14.7093 4.88094 14.6871 5.35793 14.6095 5.82383 14.4764 6.28974 14.3433 6.62253 14.1436 6.82221 13.8774 7.02188 13.6111 7.19936 13.3671 7.35467 13.1452 7.50998 12.9234 7.59871 12.7126 7.6209 12.5129L7.68746 12.28C7.68746 12.2356 7.69854 12.2134 7.72074 12.2134L8.08681 12.5795C9.41797 13.9994 10.9821 14.7093 12.7792 14.7093 13.1563 14.7093 13.5002 14.6871 13.8108 14.6428 14.1214 14.5984 14.4098 14.5208 14.6761 14.4098 14.9423 14.2989 15.1531 14.188 15.3084 14.077 15.4637 13.9661 15.6301 13.833 15.8076 13.6777 15.985 13.5224 16.096 13.3782 16.1403 13.2451 16.1847 13.1119 16.2735 12.9677 16.4066 12.8124 16.5397 12.6571 16.5841 12.524 16.5397 12.4131 16.4953 12.3022 16.5286 12.2023 16.6395 12.1136 16.7504 12.0248 16.7726 11.9472 16.7061 11.8806L16.9723 12.2134C18.37 13.8774 20.0229 14.7093 21.9309 14.7093 23.1289 14.7093 24.094 14.4098 24.8262 13.8108 25.5583 13.2118 25.9355 12.3354 25.9577 11.1818 25.9577 10.0503 25.5361 8.29757 24.6931 5.92367 23.85 3.54978 23.4285 2.12986 23.4285 1.66395 23.4507 1.35335 23.5061 1.14258 23.5948 1.03165 23.6836 0.920722 23.85 0.865255 24.094 0.865255 24.7153 0.865255 25.2921 1.19805 25.8245 1.86363 26.357 2.52921 26.7896 3.43882 27.1224 4.59251 27.189 4.83654 27.2555 4.98078 27.3221 5.02514 27.3887 5.0695 27.5661 5.0917 27.8546 5.0917 28.2983 5.0917 28.5201 5.00294 28.5201 4.82546 28.5201 4.80327 28.4758 4.63687 28.387 4.32628 28.2096 3.68289 27.9655 3.05058 27.6549 2.42937 27.3443 1.80816 26.834 1.18695 26.1241 0.565744 25.4141-0.0554652 24.6487-0.354978 23.8278-0.332791 22.7851-0.332791 22.0307-0.0332791 21.5648 0.565744 21.0989 1.16477 20.866 1.78598 20.866 2.42937 20.866 2.85091 21.2653 4.18208 22.064 6.42286 22.8627 8.66364 23.2731 10.3498 23.2953 11.4813 23.2953 12.7902 22.8072 13.4447 21.8311 13.4447L21.6647 13.4447C19.7567 13.4447 18.1482 12.3243 16.8392 10.0836L16.6062 9.68421 15.508 5.22481C14.7759 2.31844 14.3544 0.754326 14.2434 0.532465 13.955-0.0665581 13.478-0.36607 12.8124-0.36607 12.524-0.36607 12.2911-0.288419 12.1136-0.133116 11.9361 0.022186 11.8141 0.155302 11.7475 0.266232 11.6809 0.377162 11.6477 0.488094 11.6477 0.599023 11.6477 0.843068 12.0248 2.42937 12.7792 5.35793L13.9772 10.2167C14.0438 10.5495 14.077 10.971 14.077 11.4813 14.077 12.7902 13.5889 13.4447 12.6128 13.4447L12.4464 13.4447C10.5384 13.4447 8.92987 12.3243 7.6209 10.0836L7.38795 9.68421 6.28974 5.22481C5.5576 2.31844 5.13606 0.754326 5.02514 0.532465 4.73671-0.0665581 4.25972-0.36607 3.59414-0.36607 3.30572-0.36607 3.07276-0.299511 2.89528-0.166395 2.71779-0.0332791 2.59577 0.0998372 2.52921 0.232953 2.46265 0.36607 2.44046 0.476999 2.46265 0.565744 2.46265 0.854164 2.88419 2.67342 3.72725 6.02351 4.59251 9.44017 5.02514 11.2261 5.02514 11.3814 5.0917 11.7142 5.12497 12.0137 5.12497 12.28 5.12497 13.0787 4.84766 13.478 4.293 13.478 3.80489 13.478 3.39446 13.1674 3.06167 12.5462 2.72888 11.925 2.47374 11.2483 2.29625 10.5162 2.11877 9.78404 1.98565 9.38469 1.89691 9.31814 1.85254 9.27377 1.67504 9.25158 1.36444 9.25158L0.898534 9.25158C0.765418 9.38469 0.69886 9.48453 0.69886 9.55109Z" transform="matrix(1 0 0 -1.07207 1055.45 636.549)"/><path d="M0.69886 9.55109C0.721047 9.68421 0.754326 9.86168 0.798697 10.0836 0.843068 10.3054 0.976184 10.7269 1.19805 11.3482 1.41991 11.9694 1.64177 12.4907 1.86363 12.9123 2.08549 13.3338 2.45156 13.7442 2.96184 14.1436 3.4721 14.5429 3.9824 14.7315 4.49267 14.7093 5.29137 14.7093 5.95695 14.5097 6.48942 14.1103 7.02188 13.711 7.35467 13.3338 7.48779 12.9788 7.6209 12.6238 7.68746 12.3909 7.68746 12.28 7.68746 12.2356 7.69854 12.2134 7.72074 12.2134L8.08681 12.5795C9.44017 13.9994 10.9821 14.7093 12.7126 14.7093 13.9106 14.7093 14.8757 14.4098 15.6079 13.8108 16.34 13.2118 16.7172 12.3354 16.7394 11.1818 16.7616 10.0281 16.34 8.28648 15.4748 5.95695 14.6095 3.62742 14.188 2.2186 14.2102 1.73051 14.2102 1.15367 14.3987 0.865255 14.7759 0.865255 14.909 0.865255 15.0089 0.876347 15.0754 0.898534 15.7188 1.00946 16.2957 1.431 16.8059 2.16314 17.3162 2.89528 17.7045 3.78273 17.9707 4.82546 18.0151 5.00294 18.2369 5.0917 18.6363 5.0917 19.08 5.0917 19.3019 5.00294 19.3019 4.82546 19.3019 4.80327 19.2575 4.63687 19.1687 4.32628 18.9913 3.68289 18.7472 3.05058 18.4366 2.42937 18.126 1.80816 17.6157 1.18695 16.9058 0.565744 16.1958-0.0554652 15.4304-0.354978 14.6095-0.332791 13.5668-0.332791 12.8124-0.0332791 12.3465 0.565744 11.8806 1.16477 11.6477 1.78598 11.6477 2.42937 11.6477 2.85091 12.047 4.18208 12.8457 6.42286 13.6444 8.66364 14.0548 10.3498 14.077 11.4813 14.077 12.7902 13.5889 13.4447 12.6128 13.4447L12.4464 13.4447C10.5384 13.4447 8.92987 12.3243 7.6209 10.0836L7.38795 9.68421 6.28974 5.22481C5.5576 2.31844 5.13606 0.754326 5.02514 0.532465 4.73671-0.0665581 4.25972-0.36607 3.59414-0.36607 3.30572-0.36607 3.07276-0.299511 2.89528-0.166395 2.71779-0.0332791 2.59577 0.0998372 2.52921 0.232953 2.46265 0.36607 2.44046 0.476999 2.46265 0.565744 2.46265 0.854164 2.88419 2.66232 3.72725 5.99023 4.57031 9.31814 5.01406 11.1263 5.05842 11.4147 5.08061 11.5256 5.0917 11.7808 5.0917 12.1801 5.0917 13.0454 4.82546 13.478 4.293 13.478 3.44994 13.478 2.75107 12.3687 2.19642 10.1501 2.0633 9.7064 1.99674 9.47345 1.99674 9.45125 1.95237 9.31814 1.7416 9.25158 1.36444 9.25158L0.898534 9.25158C0.765418 9.38469 0.69886 9.48453 0.69886 9.55109Z" transform="matrix(1 0 0 -1.07207 1084.67 636.549)"/></g></g></g><g clip-path="url(#clip25)"><g clip-path="url(#clip26)"><g clip-path="url(#clip27)"><path d="M1.38542 18.9341C1.42941 19.066 1.47338 19.242 1.51737 19.4619 1.56135 19.6818 1.6713 20.1656 1.84723 20.9133 2.02316 21.6609 2.24306 22.3427 2.50695 22.9584 2.77084 23.5741 3.10071 24.2998 3.49654 25.1355 3.89237 25.9712 4.33219 26.6309 4.81599 27.1147 5.29978 27.5985 5.87155 28.0823 6.53127 28.5661 7.191 29.0498 7.91669 29.2478 8.70836 29.1598 9.98381 29.1598 11.1053 28.8959 12.073 28.3682 13.0406 27.8404 13.7223 27.3566 14.1181 26.9168 14.5139 26.4769 14.7559 26.0371 14.8438 25.5973 14.9317 25.3334 14.9977 25.2015 15.0417 25.2015 15.0857 25.2015 15.2616 25.3554 15.5695 25.6633 17.6806 27.9503 20.1216 29.0938 22.8924 29.0938L23.0904 29.0938C25.2015 29.0938 26.7848 28.1922 27.8404 26.389 28.1922 25.5533 28.3682 24.7397 28.3682 23.948 28.3682 22.6285 28.0823 21.573 27.5105 20.7813 26.9387 19.9897 26.367 19.4838 25.7952 19.264 25.2234 19.0441 24.6737 18.9561 24.1459 19.0001 23.2663 19.0001 22.5626 19.242 22.0348 19.7258 21.507 20.2095 21.2431 20.8473 21.2431 21.639 21.2431 23.7501 22.4746 25.1575 24.9376 25.8612 23.97 26.433 23.1783 26.7188 22.5626 26.7188 20.0996 26.7188 17.8345 25.0915 15.7674 21.8369 15.3276 21.1332 14.9977 20.4075 14.7778 19.6598 14.5579 18.9121 13.8102 15.9873 12.5348 10.8855 11.0394 4.72803 10.1817 1.45139 9.96184 1.05556 9.39006-0.131945 8.44447-0.725697 7.12502-0.725697 6.55326-0.725697 6.09145-0.593752 5.7396-0.329862 5.38775-0.0659724 5.14585 0.197917 5.01391 0.461807 4.88196 0.725697 4.83798 0.945603 4.88196 1.12153 4.88196 1.6933 5.76159 5.47571 7.52086 12.4688 9.28015 19.4619 10.1598 23.3542 10.1598 24.1459 10.1598 25.8612 9.58797 26.7188 8.44447 26.7188 7.52086 26.7188 6.72919 26.1031 6.06947 24.8716 5.40974 23.6401 4.88196 22.2987 4.48613 20.8473 4.09029 19.3959 3.84839 18.6042 3.76043 18.4723 3.67247 18.3843 3.32061 18.3403 2.70487 18.3403L1.78126 18.3403C1.51737 18.6042 1.38542 18.8021 1.38542 18.9341Z" fill="#70AD47" transform="matrix(1 0 0 -1.07308 1214 513.56)"/><path d="M0.979493 13.3864C1.01059 13.573 1.05723 13.8217 1.11942 14.1327 1.18161 14.4436 1.36818 15.0344 1.67913 15.9051 1.99008 16.7758 2.30103 17.5065 2.61198 18.0973 2.92293 18.6881 3.42045 19.2634 4.10454 19.8231 4.78865 20.3828 5.47271 20.6471 6.15681 20.616 6.84092 20.5849 7.50945 20.4761 8.16244 20.2895 8.81544 20.1029 9.28186 19.8231 9.56172 19.4499 9.84157 19.0768 10.0903 18.7348 10.308 18.4238 10.5257 18.1128 10.65 17.8174 10.6811 17.5376L10.7744 17.2111C10.7744 17.1489 10.79 17.1178 10.8211 17.1178L11.3341 17.6309C13.1998 19.621 15.392 20.616 17.9107 20.616 18.4393 20.616 18.9213 20.5849 19.3566 20.5227 19.792 20.4605 20.1962 20.3517 20.5694 20.1962 20.9425 20.0408 21.2379 19.8852 21.4556 19.7298 21.6732 19.5743 21.9065 19.3878 22.1552 19.1701 22.4039 18.9524 22.5594 18.7503 22.6216 18.5637 22.6838 18.3772 22.8082 18.1751 22.9948 17.9574 23.1813 17.7397 23.2435 17.5531 23.1813 17.3977 23.1192 17.2422 23.1658 17.1023 23.3213 16.9779 23.4767 16.8535 23.5078 16.7447 23.4145 16.6514L23.7877 17.1178C25.7467 19.4499 28.0633 20.616 30.7374 20.616 32.4165 20.616 33.7692 20.1962 34.7953 19.3566 35.8215 18.5171 36.3501 17.2888 36.3812 15.6719 36.3812 14.086 35.7903 11.6295 34.6087 8.30237 33.4272 4.97522 32.8363 2.98512 32.8363 2.33213 32.8674 1.8968 32.9452 1.60139 33.0695 1.44592 33.1939 1.29044 33.4272 1.21271 33.7692 1.21271 34.6399 1.21271 35.4483 1.67913 36.1946 2.61198 36.9409 3.54483 37.5472 4.81971 38.0137 6.43667 38.1069 6.7787 38.2002 6.98085 38.2935 7.04302 38.3868 7.10519 38.6355 7.13631 39.0398 7.13631 39.6617 7.13631 39.9726 7.01191 39.9726 6.76317 39.9726 6.73205 39.9105 6.49884 39.7861 6.06353 39.5373 5.16179 39.1952 4.27557 38.7599 3.4049 38.3246 2.53424 37.6094 1.66358 36.6144 0.792923 35.6194-0.0777377 34.5466-0.497522 33.396-0.466425 31.9346-0.466425 30.8773-0.0466425 30.2244 0.792923 29.5714 1.63249 29.2449 2.50315 29.2449 3.4049 29.2449 3.99571 29.8046 5.86143 30.924 9.00201 32.0434 12.1426 32.6187 14.5058 32.6498 16.0917 32.6498 17.9263 31.9657 18.8436 30.5975 18.8436L30.3643 18.8436C27.6901 18.8436 25.4357 17.2733 23.6011 14.1327L23.2746 13.573 21.7354 7.32288C20.7093 3.24943 20.1185 1.05723 19.963 0.74628 19.5587-0.093285 18.8902-0.513068 17.9574-0.513068 17.5531-0.513068 17.2266-0.404235 16.9779-0.18657 16.7291 0.031095 16.5581 0.217665 16.4648 0.37314 16.3715 0.528614 16.3249 0.684092 16.3249 0.839565 16.3249 1.18161 16.8535 3.4049 17.9107 7.50945L19.5899 14.3193C19.6831 14.7857 19.7298 15.3765 19.7298 16.0917 19.7298 17.9263 19.0457 18.8436 17.6775 18.8436L17.4443 18.8436C14.7701 18.8436 12.5157 17.2733 10.6811 14.1327L10.3546 13.573 8.81544 7.32288C7.7893 3.24943 7.19848 1.05723 7.04302 0.74628 6.63877-0.093285 5.97024-0.513068 5.03739-0.513068 4.63316-0.513068 4.30666-0.419783 4.0579-0.233213 3.80914-0.0466425 3.63812 0.139928 3.54483 0.326498 3.45155 0.513068 3.42045 0.668541 3.45155 0.792923 3.45155 1.19716 4.04235 3.74695 5.22396 8.4423 6.43667 13.2309 7.04302 15.7341 7.04302 15.9517 7.13631 16.4182 7.18295 16.8379 7.18295 17.2111 7.18295 18.3305 6.79428 18.8902 6.01688 18.8902 5.33278 18.8902 4.75754 18.4549 4.29111 17.5842 3.82469 16.7136 3.46709 15.7652 3.21833 14.739 2.96958 13.7129 2.78301 13.1532 2.65862 13.0599 2.59644 12.9977 2.34767 12.9666 1.91234 12.9666L1.25935 12.9666C1.07278 13.1532 0.979493 13.2931 0.979493 13.3864Z" fill="#70AD47" transform="matrix(1 0 0 -1.07308 1243.75 524.179)"/><path d="M0.979493 13.3864C1.01059 13.573 1.05723 13.8217 1.11942 14.1327 1.18161 14.4436 1.36818 15.0344 1.67913 15.9051 1.99008 16.7758 2.30103 17.5065 2.61198 18.0973 2.92293 18.6881 3.436 19.2634 4.15118 19.8231 4.86635 20.3828 5.58157 20.6471 6.29674 20.616 7.41616 20.616 8.34901 20.3361 9.09529 19.7764 9.84157 19.2167 10.308 18.6881 10.4946 18.1906 10.6811 17.693 10.7744 17.3666 10.7744 17.2111 10.7744 17.1489 10.79 17.1178 10.8211 17.1178L11.3341 17.6309C13.2309 19.621 15.392 20.616 17.8174 20.616 19.4966 20.616 20.8492 20.1962 21.8753 19.3566 22.9015 18.5171 23.4301 17.2888 23.4612 15.6719 23.4923 14.0549 22.9015 11.614 21.6888 8.34901 20.4761 5.08403 19.8852 3.1095 19.9164 2.42541 19.9164 1.61694 20.1807 1.21271 20.7093 1.21271 20.8958 1.21271 21.0358 1.22825 21.1291 1.25935 22.0308 1.41482 22.8393 2.00563 23.5545 3.03176 24.2696 4.0579 24.8138 5.30172 25.187 6.76317 25.2491 7.01191 25.5601 7.13631 26.1198 7.13631 26.7417 7.13631 27.0527 7.01191 27.0527 6.76317 27.0527 6.73205 26.9905 6.49884 26.8661 6.06353 26.6173 5.16179 26.2753 4.27557 25.84 3.4049 25.4046 2.53424 24.6894 1.66358 23.6944 0.792923 22.6994-0.0777377 21.6266-0.497522 20.4761-0.466425 19.0146-0.466425 17.9574-0.0466425 17.3044 0.792923 16.6514 1.63249 16.3249 2.50315 16.3249 3.4049 16.3249 3.99571 16.8846 5.86143 18.004 9.00201 19.1234 12.1426 19.6987 14.5058 19.7298 16.0917 19.7298 17.9263 19.0457 18.8436 17.6775 18.8436L17.4443 18.8436C14.7701 18.8436 12.5157 17.2733 10.6811 14.1327L10.3546 13.573 8.81544 7.32288C7.7893 3.24943 7.19848 1.05723 7.04302 0.74628 6.63877-0.093285 5.97024-0.513068 5.03739-0.513068 4.63316-0.513068 4.30666-0.419783 4.0579-0.233213 3.80914-0.0466425 3.63812 0.139928 3.54483 0.326498 3.45155 0.513068 3.42045 0.668541 3.45155 0.792923 3.45155 1.19716 4.04235 3.7314 5.22396 8.39565 6.40556 13.0599 7.02749 15.5941 7.08966 15.9984 7.12077 16.1538 7.13631 16.5115 7.13631 17.0712 7.13631 18.2839 6.76317 18.8902 6.01688 18.8902 4.83529 18.8902 3.85578 17.3355 3.07841 14.226 2.89184 13.6041 2.79855 13.2776 2.79855 13.2465 2.73636 13.0599 2.44096 12.9666 1.91234 12.9666L1.25935 12.9666C1.07278 13.1532 0.979493 13.2931 0.979493 13.3864Z" fill="#70AD47" transform="matrix(1 0 0 -1.07308 1284.71 524.179)"/></g></g></g><g clip-path="url(#clip28)"><g clip-path="url(#clip29)"><g clip-path="url(#clip30)"><path d="M5.6144 34.7892C5.6144 35.6581 6.08227 36.3264 7.01799 36.7943L70.8817 36.7943C71.8843 36.2597 72.3856 35.5913 72.3856 34.7892 72.3856 34.054 71.9177 33.419 70.982 32.8843L39.1003 32.7841 7.21851 32.7841C6.1491 33.1182 5.6144 33.7866 5.6144 34.7892ZM5.6144 15.3393C5.6144 16.3419 6.1491 17.0103 7.21851 17.3445L70.982 17.3445C71.9177 16.6761 72.3856 16.0077 72.3856 15.3393 72.3856 14.4704 71.8843 13.8021 70.8817 13.3342L7.01799 13.3342C6.08227 13.8021 5.6144 14.4704 5.6144 15.3393Z" transform="matrix(1 0 0 -1.01709 146 252.544)"/></g></g></g><g clip-path="url(#clip31)"><g clip-path="url(#clip32)"><g clip-path="url(#clip33)"><path d="M5.6144 34.7892C5.6144 35.6581 6.08227 36.3264 7.01799 36.7943L70.8817 36.7943C71.8843 36.2597 72.3856 35.5913 72.3856 34.7892 72.3856 34.054 71.9177 33.419 70.982 32.8843L39.1003 32.7841 7.21851 32.7841C6.1491 33.1182 5.6144 33.7866 5.6144 34.7892ZM5.6144 15.3393C5.6144 16.3419 6.1491 17.0103 7.21851 17.3445L70.982 17.3445C71.9177 16.6761 72.3856 16.0077 72.3856 15.3393 72.3856 14.4704 71.8843 13.8021 70.8817 13.3342L7.01799 13.3342C6.08227 13.8021 5.6144 14.4704 5.6144 15.3393Z" transform="matrix(1 0 0 -1.01709 638 252.544)"/></g></g></g><path d="M7.50147-1.49058 282.138-1.14564 282.135 1.85436 7.4977 1.50942ZM8.99434 4.5113 0 0 9.00564-4.48869ZM280.642-4.14752 289.636 0.36378 280.63 4.85247Z" transform="matrix(1 0 0 -1 301.5 347.864)"/><path d="M1.55206 7.4896 2.72094 175.762-0.278989 175.783-1.44787 7.51044ZM-4.43738 9.03104 0 0 4.56241 8.96852ZM5.71045 174.242 1.27307 183.273-3.28934 174.304Z" transform="matrix(-1 -8.74228e-08 -8.74228e-08 1 276.773 142.5)"/><g clip-path="url(#clip34)"><g clip-path="url(#clip35)"><g clip-path="url(#clip36)"><path d="M-1.01987-13.9382C-1.05225-14.1325-1.10081-14.3914-1.16556-14.7152-1.23031-15.039-1.42458-15.6541-1.74834-16.5607-2.07211-17.4673-2.39588-18.2281-2.71965-18.8433-3.04342-19.4584-3.56144-20.0574-4.27373-20.6402-4.98604-21.223-5.69829-21.4982-6.4106-21.4658-7.1229-21.4334-7.81898-21.3201-8.4989-21.1258-9.17881-20.9316-9.66446-20.6402-9.95585-20.2517-10.2472-19.8631-10.5062-19.507-10.7329-19.1832-10.9595-18.8594-11.089-18.5519-11.1214-18.2605L-11.2185-17.9205C-11.2185-17.8558-11.2347-17.8234-11.2671-17.8234L-11.8013-18.3576C-13.7439-20.4297-16.0265-21.4658-18.649-21.4658-19.1994-21.4658-19.7013-21.4334-20.1545-21.3687-20.6078-21.3039-21.0287-21.1906-21.4172-21.0287-21.8057-20.8668-22.1133-20.7049-22.34-20.543-22.5666-20.3812-22.8094-20.1869-23.0684-19.9603-23.3274-19.7336-23.4893-19.5232-23.5541-19.3289-23.6188-19.1347-23.7483-18.9242-23.9426-18.6976-24.1369-18.4709-24.2016-18.2767-24.1369-18.1148-24.0721-17.9529-24.1207-17.8072-24.2826-17.6777-24.4444-17.5482-24.4768-17.4349-24.3797-17.3377L-24.7682-17.8234C-26.8079-20.2517-29.22-21.4658-32.0044-21.4658-33.7528-21.4658-35.1611-21.0287-36.2296-20.1545-37.298-19.2804-37.8484-18.0015-37.8808-16.3179-37.8808-14.6667-37.2656-12.1089-36.0353-8.64459-34.805-5.1803-34.1898-3.10817-34.1898-2.42826-34.2222-1.97498-34.3032-1.6674-34.4327-1.50552-34.5622-1.34364-34.805-1.26269-35.1611-1.26269-36.0677-1.26269-36.9095-1.74834-37.6865-2.71965-38.4636-3.69095-39.0949-5.01838-39.5806-6.70199-39.6777-7.05811-39.7748-7.2686-39.872-7.33333-39.9691-7.39807-40.2281-7.43046-40.649-7.43046-41.2965-7.43046-41.6203-7.30094-41.6203-7.04194-41.6203-7.00955-41.5556-6.76672-41.426-6.31347-41.1671-5.37456-40.8109-4.4518-40.3576-3.54525-39.9044-2.6387-39.1597-1.73216-38.1236-0.825607-37.0876 0.080942-35.9706 0.51803-34.7726 0.485651-33.2509 0.485651-32.1501 0.0485651-31.4702-0.825607-30.7903-1.69978-30.4503-2.60633-30.4503-3.54525-30.4503-4.16041-31.0331-6.10303-32.1987-9.37307-33.3642-12.6431-33.9632-15.1038-33.9956-16.755-33.9956-18.6652-33.2833-19.6203-31.8587-19.6203L-31.6159-19.6203C-28.8315-19.6203-26.4842-17.9853-24.574-14.7152L-24.234-14.1325-22.6313-7.62472C-21.5629-3.38337-20.9477-1.10081-20.7859-0.777042-20.365 0.0971302-19.6689 0.534216-18.6976 0.534216-18.2767 0.534216-17.9367 0.420898-17.6777 0.19426-17.4187-0.0323768-17.2406-0.226637-17.1435-0.388521-17.0464-0.550403-16.9978-0.71229-16.9978-0.874172-16.9978-1.23031-17.5482-3.54525-18.649-7.81898L-20.3974-14.9095C-20.4945-15.3951-20.543-16.0103-20.543-16.755-20.543-18.6652-19.8307-19.6203-18.4062-19.6203L-18.1634-19.6203C-15.379-19.6203-13.0316-17.9853-11.1214-14.7152L-10.7815-14.1325-9.17881-7.62472C-8.11038-3.38337-7.4952-1.10081-7.33333-0.777042-6.91242 0.0971302-6.21634 0.534216-5.24503 0.534216-4.82413 0.534216-4.48418 0.437086-4.22517 0.242826-3.96615 0.0485651-3.78808-0.145695-3.69095-0.339956-3.59382-0.534216-3.56144-0.696098-3.59382-0.825607-3.59382-1.24651-4.20898-3.9014-5.43929-8.79029-6.70199-13.7763-7.33333-16.3826-7.33333-16.6093-7.43046-17.0949-7.47903-17.532-7.47903-17.9205-7.47903-19.0861-7.07434-19.6689-6.2649-19.6689-5.5526-19.6689-4.95364-19.2156-4.46799-18.3091-3.98234-17.4025-3.61001-16.415-3.35099-15.3466-3.09198-14.2781-2.89772-13.6954-2.76821-13.5982-2.70346-13.5335-2.44444-13.5011-1.99117-13.5011L-1.31126-13.5011C-1.117-13.6954-1.01987-13.8411-1.01987-13.9382Z" transform="matrix(-1.04545 -0 -0 1 229.711 184.466)"/></g></g></g><g clip-path="url(#clip37)"><g clip-path="url(#clip38)"><g clip-path="url(#clip39)"><path d="M-1.2053-16.4724C-1.24356-16.702-1.30096-17.0081-1.37748-17.3907-1.45401-17.7734-1.68359-18.5003-2.06623-19.5717-2.44886-20.6431-2.83149-21.5423-3.21413-22.2693-3.59676-22.9963-4.22811-23.7042-5.10817-24.3929-5.98821-25.0817-6.8683-25.4069-7.74834-25.3687-9.12583-25.3687-10.2737-25.0243-11.1921-24.3355-12.1104-23.6468-12.6843-22.9963-12.9139-22.3841-13.1435-21.7719-13.2583-21.3701-13.2583-21.1788-13.2583-21.1023-13.2774-21.064-13.3157-21.064L-13.947-21.6954C-16.2811-24.1442-18.9404-25.3687-21.9249-25.3687-23.9912-25.3687-25.6556-24.8521-26.9183-23.819-28.181-22.7859-28.8315-21.2745-28.8698-19.2848-28.908-17.2951-28.181-14.2914-26.6887-10.2737-25.1965-6.25607-24.4694-3.82634-24.5077-2.98455-24.5077-1.9897-24.833-1.49227-25.4834-1.49227-25.713-1.49227-25.8852-1.5114-26-1.54967-27.1096-1.74098-28.1045-2.46799-28.9845-3.73068-29.8646-4.99338-30.5342-6.52393-30.9934-8.3223-31.0699-8.62838-31.4525-8.78146-32.1413-8.78146-32.9065-8.78146-33.2892-8.62838-33.2892-8.3223-33.2892-8.28401-33.2127-7.99704-33.0596-7.46137-32.7535-6.35175-32.3326-5.26122-31.7969-4.18985-31.2612-3.11847-30.3811-2.0471-29.1567-0.975717-27.9323 0.0956588-26.6122 0.612217-25.1965 0.573951-23.3981 0.573951-22.0971 0.0573951-21.2936-0.975717-20.4901-2.00883-20.0883-3.08021-20.0883-4.18985-20.0883-4.91685-20.777-7.21268-22.1545-11.0773-23.532-14.9419-24.2399-17.8499-24.2781-19.8013-24.2781-22.0588-23.4363-23.1876-21.7528-23.1876L-21.4658-23.1876C-18.1751-23.1876-15.401-21.2553-13.1435-17.3907L-12.7417-16.702-10.8477-9.01104C-9.58499-3.99853-8.85796-1.30096-8.66667-0.918322-8.16922 0.11479-7.34658 0.631347-6.19868 0.631347-5.70125 0.631347-5.29948 0.516556-4.99338 0.286976-4.68727 0.0573951-4.47682-0.172185-4.36203-0.401766-4.24724-0.631347-4.20898-0.822662-4.24724-0.975717-4.24724-1.47314-4.97425-4.59161-6.42826-10.3311-7.88225-16.0706-8.64755-19.1891-8.72406-19.6865-8.76235-19.8778-8.78146-20.3179-8.78146-21.0066-8.78146-22.4989-8.3223-23.245-7.40397-23.245-5.94998-23.245-4.74467-21.3319-3.78808-17.5055-3.5585-16.7403-3.44371-16.3385-3.44371-16.3002-3.36718-16.0706-3.00368-15.9559-2.3532-15.9559L-1.54967-15.9559C-1.32009-16.1854-1.2053-16.3576-1.2053-16.4724Z" transform="matrix(-1.06294 -0 -0 1 547.698 382.369)"/></g></g></g></g></svg>